G04 #@! TF.GenerationSoftware,KiCad,Pcbnew,(6.0.4)*
G04 #@! TF.CreationDate,2023-01-11T07:52:02+01:00*
G04 #@! TF.ProjectId,keyboard,6b657962-6f61-4726-942e-6b696361645f,rev?*
G04 #@! TF.SameCoordinates,Original*
G04 #@! TF.FileFunction,Copper,L1,Top*
G04 #@! TF.FilePolarity,Positive*
%FSLAX46Y46*%
G04 Gerber Fmt 4.6, Leading zero omitted, Abs format (unit mm)*
G04 Created by KiCad (PCBNEW (6.0.4)) date 2023-01-11 07:52:02*
%MOMM*%
%LPD*%
G01*
G04 APERTURE LIST*
G04 Aperture macros list*
%AMRoundRect*
0 Rectangle with rounded corners*
0 $1 Rounding radius*
0 $2 $3 $4 $5 $6 $7 $8 $9 X,Y pos of 4 corners*
0 Add a 4 corners polygon primitive as box body*
4,1,4,$2,$3,$4,$5,$6,$7,$8,$9,$2,$3,0*
0 Add four circle primitives for the rounded corners*
1,1,$1+$1,$2,$3*
1,1,$1+$1,$4,$5*
1,1,$1+$1,$6,$7*
1,1,$1+$1,$8,$9*
0 Add four rect primitives between the rounded corners*
20,1,$1+$1,$2,$3,$4,$5,0*
20,1,$1+$1,$4,$5,$6,$7,0*
20,1,$1+$1,$6,$7,$8,$9,0*
20,1,$1+$1,$8,$9,$2,$3,0*%
%AMHorizOval*
0 Thick line with rounded ends*
0 $1 width*
0 $2 $3 position (X,Y) of the first rounded end (center of the circle)*
0 $4 $5 position (X,Y) of the second rounded end (center of the circle)*
0 Add line between two ends*
20,1,$1,$2,$3,$4,$5,0*
0 Add two circle primitives to create the rounded ends*
1,1,$1,$2,$3*
1,1,$1,$4,$5*%
%AMRotRect*
0 Rectangle, with rotation*
0 The origin of the aperture is its center*
0 $1 length*
0 $2 width*
0 $3 Rotation angle, in degrees counterclockwise*
0 Add horizontal line*
21,1,$1,$2,0,0,$3*%
G04 Aperture macros list end*
G04 #@! TA.AperFunction,SMDPad,CuDef*
%ADD10RoundRect,0.250000X0.450000X-0.325000X0.450000X0.325000X-0.450000X0.325000X-0.450000X-0.325000X0*%
G04 #@! TD*
G04 #@! TA.AperFunction,SMDPad,CuDef*
%ADD11RoundRect,0.250000X-0.450000X0.325000X-0.450000X-0.325000X0.450000X-0.325000X0.450000X0.325000X0*%
G04 #@! TD*
G04 #@! TA.AperFunction,SMDPad,CuDef*
%ADD12R,1.700000X1.000000*%
G04 #@! TD*
G04 #@! TA.AperFunction,SMDPad,CuDef*
%ADD13RotRect,0.400000X1.900000X315.000000*%
G04 #@! TD*
G04 #@! TA.AperFunction,SMDPad,CuDef*
%ADD14RoundRect,0.250000X-0.325000X-0.450000X0.325000X-0.450000X0.325000X0.450000X-0.325000X0.450000X0*%
G04 #@! TD*
G04 #@! TA.AperFunction,ComponentPad*
%ADD15C,2.250000*%
G04 #@! TD*
G04 #@! TA.AperFunction,ComponentPad*
%ADD16HorizOval,2.250000X0.655001X0.730000X-0.655001X-0.730000X0*%
G04 #@! TD*
G04 #@! TA.AperFunction,ComponentPad*
%ADD17HorizOval,2.250000X0.020000X0.290000X-0.020000X-0.290000X0*%
G04 #@! TD*
G04 #@! TA.AperFunction,ComponentPad*
%ADD18O,0.890000X1.550000*%
G04 #@! TD*
G04 #@! TA.AperFunction,ComponentPad*
%ADD19O,1.250000X0.950000*%
G04 #@! TD*
G04 #@! TA.AperFunction,ViaPad*
%ADD20C,0.800000*%
G04 #@! TD*
G04 #@! TA.AperFunction,Conductor*
%ADD21C,0.250000*%
G04 #@! TD*
G04 APERTURE END LIST*
D10*
X66000000Y-84825000D03*
X66000000Y-82775000D03*
D11*
X70100000Y-89875000D03*
X70100000Y-91925000D03*
D12*
X79050000Y-67400000D03*
X72750000Y-67400000D03*
X72750000Y-71200000D03*
X79050000Y-71200000D03*
D13*
X66151472Y-87251472D03*
X67000000Y-88100000D03*
X67848528Y-88948528D03*
D14*
X85395001Y-68520001D03*
X87445001Y-68520001D03*
X107725000Y-68500000D03*
X109775000Y-68500000D03*
D15*
X226175000Y-134075000D03*
D16*
X225520001Y-134805000D03*
D15*
X231215000Y-132995000D03*
D17*
X231195000Y-133285000D03*
D16*
X263620001Y-134805000D03*
D15*
X264275000Y-134075000D03*
D17*
X269295000Y-133285000D03*
D15*
X269315000Y-132995000D03*
D16*
X244570001Y-134805000D03*
D15*
X245225000Y-134075000D03*
D17*
X250245000Y-133285000D03*
D15*
X250265000Y-132995000D03*
D16*
X73120001Y-115755000D03*
D15*
X73775000Y-115025000D03*
X78815000Y-113945000D03*
D17*
X78795000Y-114235000D03*
D15*
X130925000Y-134075000D03*
D16*
X130270001Y-134805000D03*
D17*
X135945000Y-133285000D03*
D15*
X135965000Y-132995000D03*
D16*
X130270001Y-96705000D03*
D15*
X130925000Y-95975000D03*
D17*
X135945000Y-95185000D03*
D15*
X135965000Y-94895000D03*
X54725000Y-134075000D03*
D16*
X54070001Y-134805000D03*
D17*
X59745000Y-133285000D03*
D15*
X59765000Y-132995000D03*
D16*
X168370001Y-77655000D03*
D15*
X169025000Y-76925000D03*
D17*
X174045000Y-76135000D03*
D15*
X174065000Y-75845000D03*
D16*
X149320001Y-77655000D03*
D15*
X149975000Y-76925000D03*
X155015000Y-75845000D03*
D17*
X154995000Y-76135000D03*
D15*
X111875000Y-76925000D03*
D16*
X111220001Y-77655000D03*
D15*
X116915000Y-75845000D03*
D17*
X116895000Y-76135000D03*
D15*
X188075000Y-115025000D03*
D16*
X187420001Y-115755000D03*
D17*
X193095000Y-114235000D03*
D15*
X193115000Y-113945000D03*
D16*
X54070001Y-77655000D03*
D15*
X54725000Y-76925000D03*
D17*
X59745000Y-76135000D03*
D15*
X59765000Y-75845000D03*
X207125000Y-134075000D03*
D16*
X206470001Y-134805000D03*
D17*
X212145000Y-133285000D03*
D15*
X212165000Y-132995000D03*
D16*
X92170001Y-77655000D03*
D15*
X92825000Y-76925000D03*
D17*
X97845000Y-76135000D03*
D15*
X97865000Y-75845000D03*
D16*
X263620001Y-115755000D03*
D15*
X264275000Y-115025000D03*
D17*
X269295000Y-114235000D03*
D15*
X269315000Y-113945000D03*
D16*
X139795001Y-153855000D03*
D15*
X140450000Y-153125000D03*
D17*
X145470000Y-152335000D03*
D15*
X145490000Y-152045000D03*
X245225000Y-153125000D03*
D16*
X244570001Y-153855000D03*
D17*
X250245000Y-152335000D03*
D15*
X250265000Y-152045000D03*
X226175000Y-115025000D03*
D16*
X225520001Y-115755000D03*
D15*
X231215000Y-113945000D03*
D17*
X231195000Y-114235000D03*
D16*
X244570001Y-77655000D03*
D15*
X245225000Y-76925000D03*
D17*
X250245000Y-76135000D03*
D15*
X250265000Y-75845000D03*
X188075000Y-76925000D03*
D16*
X187420001Y-77655000D03*
D17*
X193095000Y-76135000D03*
D15*
X193115000Y-75845000D03*
X73775000Y-95975000D03*
D16*
X73120001Y-96705000D03*
D15*
X78815000Y-94895000D03*
D17*
X78795000Y-95185000D03*
D16*
X92170001Y-153855000D03*
D15*
X92825000Y-153125000D03*
X97865000Y-152045000D03*
D17*
X97845000Y-152335000D03*
D15*
X149975000Y-134075000D03*
D16*
X149320001Y-134805000D03*
D17*
X154995000Y-133285000D03*
D15*
X155015000Y-132995000D03*
D16*
X263620001Y-77655000D03*
D15*
X264275000Y-76925000D03*
D17*
X269295000Y-76135000D03*
D15*
X269315000Y-75845000D03*
X54725000Y-115025000D03*
D16*
X54070001Y-115755000D03*
D15*
X59765000Y-113945000D03*
D17*
X59745000Y-114235000D03*
D16*
X130270001Y-115755000D03*
D15*
X130925000Y-115025000D03*
D17*
X135945000Y-114235000D03*
D15*
X135965000Y-113945000D03*
X245225000Y-115025000D03*
D16*
X244570001Y-115755000D03*
D17*
X250245000Y-114235000D03*
D15*
X250265000Y-113945000D03*
X111875000Y-153125000D03*
D16*
X111220001Y-153855000D03*
D15*
X116915000Y-152045000D03*
D17*
X116895000Y-152335000D03*
D16*
X168370001Y-134805000D03*
D15*
X169025000Y-134075000D03*
D17*
X174045000Y-133285000D03*
D15*
X174065000Y-132995000D03*
X207125000Y-76925000D03*
D16*
X206470001Y-77655000D03*
D17*
X212145000Y-76135000D03*
D15*
X212165000Y-75845000D03*
D16*
X206470001Y-115755000D03*
D15*
X207125000Y-115025000D03*
D17*
X212145000Y-114235000D03*
D15*
X212165000Y-113945000D03*
X54725000Y-95975000D03*
D16*
X54070001Y-96705000D03*
D15*
X59765000Y-94895000D03*
D17*
X59745000Y-95185000D03*
D16*
X168370001Y-153855000D03*
D15*
X169025000Y-153125000D03*
X174065000Y-152045000D03*
D17*
X174045000Y-152335000D03*
D15*
X92825000Y-95975000D03*
D16*
X92170001Y-96705000D03*
D17*
X97845000Y-95185000D03*
D15*
X97865000Y-94895000D03*
D16*
X149320001Y-96705000D03*
D15*
X149975000Y-95975000D03*
X155015000Y-94895000D03*
D17*
X154995000Y-95185000D03*
D15*
X169025000Y-115025000D03*
D16*
X168370001Y-115755000D03*
D15*
X174065000Y-113945000D03*
D17*
X174045000Y-114235000D03*
D15*
X73775000Y-76925000D03*
D16*
X73120001Y-77655000D03*
D15*
X78815000Y-75845000D03*
D17*
X78795000Y-76135000D03*
D15*
X188075000Y-134075000D03*
D16*
X187420001Y-134805000D03*
D15*
X193115000Y-132995000D03*
D17*
X193095000Y-133285000D03*
D15*
X226175000Y-95975000D03*
D16*
X225520001Y-96705000D03*
D17*
X231195000Y-95185000D03*
D15*
X231215000Y-94895000D03*
D16*
X92170001Y-115755000D03*
D15*
X92825000Y-115025000D03*
D17*
X97845000Y-114235000D03*
D15*
X97865000Y-113945000D03*
D16*
X225520001Y-77655000D03*
D15*
X226175000Y-76925000D03*
D17*
X231195000Y-76135000D03*
D15*
X231215000Y-75845000D03*
X226175000Y-153125000D03*
D16*
X225520001Y-153855000D03*
D17*
X231195000Y-152335000D03*
D15*
X231215000Y-152045000D03*
D16*
X206470001Y-153855000D03*
D15*
X207125000Y-153125000D03*
X212165000Y-152045000D03*
D17*
X212145000Y-152335000D03*
D15*
X130925000Y-76925000D03*
D16*
X130270001Y-77655000D03*
D15*
X135965000Y-75845000D03*
D17*
X135945000Y-76135000D03*
D15*
X111875000Y-134075000D03*
D16*
X111220001Y-134805000D03*
D15*
X116915000Y-132995000D03*
D17*
X116895000Y-133285000D03*
D16*
X206470001Y-96705000D03*
D15*
X207125000Y-95975000D03*
X212165000Y-94895000D03*
D17*
X212145000Y-95185000D03*
D16*
X263620001Y-96705000D03*
D15*
X264275000Y-95975000D03*
X269315000Y-94895000D03*
D17*
X269295000Y-95185000D03*
D15*
X264275000Y-153125000D03*
D16*
X263620001Y-153855000D03*
D17*
X269295000Y-152335000D03*
D15*
X269315000Y-152045000D03*
D16*
X73120001Y-153855000D03*
D15*
X73775000Y-153125000D03*
D17*
X78795000Y-152335000D03*
D15*
X78815000Y-152045000D03*
X73775000Y-134075000D03*
D16*
X73120001Y-134805000D03*
D17*
X78795000Y-133285000D03*
D15*
X78815000Y-132995000D03*
X54725000Y-153125000D03*
D16*
X54070001Y-153855000D03*
D15*
X59765000Y-152045000D03*
D17*
X59745000Y-152335000D03*
D15*
X92825000Y-134075000D03*
D16*
X92170001Y-134805000D03*
D17*
X97845000Y-133285000D03*
D15*
X97865000Y-132995000D03*
D16*
X187420001Y-153855000D03*
D15*
X188075000Y-153125000D03*
X193115000Y-152045000D03*
D17*
X193095000Y-152335000D03*
D15*
X188075000Y-95975000D03*
D16*
X187420001Y-96705000D03*
D15*
X193115000Y-94895000D03*
D17*
X193095000Y-95185000D03*
D15*
X111875000Y-95975000D03*
D16*
X111220001Y-96705000D03*
D15*
X116915000Y-94895000D03*
D17*
X116895000Y-95185000D03*
D15*
X111875000Y-115025000D03*
D16*
X111220001Y-115755000D03*
D17*
X116895000Y-114235000D03*
D15*
X116915000Y-113945000D03*
X169025000Y-95975000D03*
D16*
X168370001Y-96705000D03*
D17*
X174045000Y-95185000D03*
D15*
X174065000Y-94895000D03*
X245225000Y-95975000D03*
D16*
X244570001Y-96705000D03*
D15*
X250265000Y-94895000D03*
D17*
X250245000Y-95185000D03*
D15*
X149975000Y-115025000D03*
D16*
X149320001Y-115755000D03*
D15*
X155015000Y-113945000D03*
D17*
X154995000Y-114235000D03*
D18*
X70200000Y-67400000D03*
X63200000Y-67400000D03*
D19*
X64200000Y-70100000D03*
X69200000Y-70100000D03*
D20*
X67300000Y-84200000D03*
X79250000Y-68750000D03*
X71900000Y-89200000D03*
X65500000Y-92500000D03*
X73000000Y-68750000D03*
X70100000Y-91925000D03*
X63800000Y-88000000D03*
X61300000Y-70100000D03*
X74300000Y-102900000D03*
X61800000Y-105900000D03*
X71600000Y-102000000D03*
X66800000Y-92500000D03*
X62600000Y-106600000D03*
X68000000Y-92500000D03*
X62300000Y-102900000D03*
X64000000Y-104500000D03*
X63800000Y-89200000D03*
X73190000Y-82600000D03*
X74800000Y-91668807D03*
X65797918Y-97500000D03*
X59500000Y-89800000D03*
X62700000Y-98000000D03*
X74500000Y-86600000D03*
X69530782Y-97471118D03*
X91515000Y-105600000D03*
X110565000Y-106400000D03*
X70228255Y-96754504D03*
X129615000Y-106900000D03*
X70836629Y-95960852D03*
X148665000Y-109100000D03*
X71549208Y-95259258D03*
X72200000Y-94500000D03*
X167600000Y-110600000D03*
X74000000Y-93725000D03*
X78600000Y-91900000D03*
X78500000Y-90700000D03*
X243825001Y-85625001D03*
X79200000Y-86200000D03*
X78600000Y-87000000D03*
X199100000Y-84900000D03*
X122900000Y-84900000D03*
X65600000Y-78000000D03*
X142000000Y-84900000D03*
X256200000Y-84900000D03*
X272900000Y-84900000D03*
X161000000Y-84900000D03*
X237200000Y-84900000D03*
X63100000Y-91000000D03*
X218000000Y-84900000D03*
X180100000Y-84900000D03*
X84800000Y-84900000D03*
X103900000Y-84900000D03*
X65500000Y-80500000D03*
X103800000Y-103900000D03*
X275300000Y-103900000D03*
X237100000Y-103900000D03*
X161000000Y-103900000D03*
X256300000Y-103900000D03*
X218100000Y-103900000D03*
X71100000Y-103900000D03*
X84800000Y-103900000D03*
X199100000Y-103900000D03*
X141900000Y-103900000D03*
X180000000Y-103900000D03*
X123000000Y-103900000D03*
X103700000Y-123100000D03*
X65900000Y-123100000D03*
X256200000Y-123100000D03*
X199000000Y-123100000D03*
X237200000Y-123100000D03*
X84800000Y-123100000D03*
X161000000Y-123100000D03*
X218200000Y-123100000D03*
X275300000Y-123100000D03*
X122900000Y-123100000D03*
X142000000Y-123100000D03*
X180000000Y-123100000D03*
X199200000Y-142400000D03*
X141900000Y-142400000D03*
X256100000Y-142400000D03*
X180100000Y-142400000D03*
X65700000Y-142400000D03*
X161000000Y-142400000D03*
X218200000Y-142400000D03*
X84800000Y-142400000D03*
X275200000Y-142400000D03*
X122900000Y-142400000D03*
X103900000Y-142400000D03*
X237300000Y-142400000D03*
X218100000Y-161000000D03*
X63997653Y-136200000D03*
X65800000Y-161000000D03*
X103900000Y-161000000D03*
X122900000Y-161000000D03*
X199100000Y-161000000D03*
X64000000Y-139400000D03*
X275300000Y-161000000D03*
X256300000Y-161000000D03*
X161000000Y-161000000D03*
X180000000Y-161000000D03*
X237200000Y-161000000D03*
X84800000Y-161000000D03*
X63800000Y-103100000D03*
X65700000Y-116300000D03*
X67464998Y-85700000D03*
X69800000Y-87500000D03*
X70400000Y-78400000D03*
X72950000Y-72600000D03*
X79250000Y-72600000D03*
X69600000Y-81600000D03*
X60621663Y-85078339D03*
X62800000Y-75225500D03*
X60300000Y-72600000D03*
X59605773Y-85369675D03*
X83525000Y-68475001D03*
X87445001Y-68520001D03*
X109775000Y-68500000D03*
X105775000Y-68500000D03*
D21*
X72500000Y-102900000D02*
X71600000Y-102000000D01*
X62600000Y-105900000D02*
X62600000Y-106600000D01*
X61800000Y-105900000D02*
X61800000Y-103400000D01*
X72750000Y-67400000D02*
X72750000Y-68500000D01*
X67600000Y-87635002D02*
X67600000Y-87500000D01*
X64200000Y-70100000D02*
X61300000Y-70100000D01*
X79050000Y-67400000D02*
X79050000Y-68550000D01*
X61800000Y-103400000D02*
X62300000Y-102900000D01*
X79050000Y-68550000D02*
X79250000Y-68750000D01*
X72750000Y-68500000D02*
X73000000Y-68750000D01*
X74300000Y-102900000D02*
X72500000Y-102900000D01*
X64000000Y-104500000D02*
X62600000Y-105900000D01*
X75225001Y-84725001D02*
X73190000Y-82690000D01*
X75225001Y-91243806D02*
X75225001Y-84725001D01*
X65797918Y-96097918D02*
X59500000Y-89800000D01*
X65797918Y-97500000D02*
X65797918Y-96097918D01*
X73190000Y-82690000D02*
X73190000Y-82600000D01*
X74800000Y-91668807D02*
X75225001Y-91243806D01*
X62700000Y-95683998D02*
X60461001Y-93444999D01*
X57255001Y-93444999D02*
X55849999Y-94850001D01*
X53415000Y-97435000D02*
X53415000Y-97285000D01*
X53415000Y-97285000D02*
X54725000Y-95975000D01*
X60461001Y-93444999D02*
X57255001Y-93444999D01*
X53415000Y-97435000D02*
X53415000Y-78385000D01*
X55849999Y-94850001D02*
X54725000Y-95975000D01*
X62700000Y-98000000D02*
X62700000Y-95683998D01*
X72465000Y-83999315D02*
X72465000Y-78385000D01*
X74100001Y-86999999D02*
X74500000Y-86600000D01*
X72925001Y-88174999D02*
X74100001Y-86999999D01*
X74500000Y-86034315D02*
X72465000Y-83999315D01*
X74500000Y-86600000D02*
X74500000Y-86034315D01*
X72925001Y-96974999D02*
X72925001Y-88174999D01*
X72465000Y-97435000D02*
X72925001Y-96974999D01*
X68965097Y-97471118D02*
X68600020Y-97836195D01*
X68600020Y-97836195D02*
X68600020Y-105100020D01*
X69100000Y-105600000D02*
X91515000Y-105600000D01*
X69530782Y-97471118D02*
X68965097Y-97471118D01*
X68600020Y-105100020D02*
X69100000Y-105600000D01*
X68740721Y-95759279D02*
X68150010Y-96349990D01*
X68150010Y-96349990D02*
X68150010Y-103736398D01*
X68150010Y-103736398D02*
X68125021Y-103761387D01*
X68125021Y-103761387D02*
X68125021Y-105725021D01*
X70228255Y-96754504D02*
X69828256Y-96354505D01*
X69259279Y-95759279D02*
X68740721Y-95759279D01*
X69828256Y-96328256D02*
X69259279Y-95759279D01*
X68125021Y-105725021D02*
X68800000Y-106400000D01*
X69828256Y-96354505D02*
X69828256Y-96328256D01*
X68800000Y-106400000D02*
X110565000Y-106400000D01*
X67675011Y-106575011D02*
X68500000Y-107400000D01*
X68527141Y-95309269D02*
X67675011Y-96161399D01*
X68500000Y-107400000D02*
X129100000Y-107400000D01*
X129600000Y-106900000D02*
X129615000Y-106900000D01*
X67675011Y-96161399D02*
X67700000Y-96186388D01*
X129100000Y-107400000D02*
X129600000Y-106900000D01*
X67675011Y-96161399D02*
X67675011Y-106575011D01*
X70436630Y-95536630D02*
X70209269Y-95309269D01*
X70436630Y-95560853D02*
X70436630Y-95536630D01*
X70836629Y-95960852D02*
X70436630Y-95560853D01*
X70209269Y-95309269D02*
X68527141Y-95309269D01*
X148565000Y-109000000D02*
X148665000Y-109100000D01*
X71149209Y-94859259D02*
X68340741Y-94859259D01*
X71549208Y-95259258D02*
X71149209Y-94859259D01*
X67225001Y-107125001D02*
X69100000Y-109000000D01*
X69100000Y-109000000D02*
X148565000Y-109000000D01*
X67225001Y-95974999D02*
X67225001Y-107125001D01*
X68340741Y-94859259D02*
X67225001Y-95974999D01*
X68463589Y-94100001D02*
X66700000Y-95863590D01*
X70063590Y-110600000D02*
X149091998Y-110600000D01*
X66700000Y-95863590D02*
X66700000Y-97400000D01*
X66700000Y-97400000D02*
X66700000Y-106700000D01*
X72200000Y-94500000D02*
X71800001Y-94100001D01*
X66700000Y-107236410D02*
X69163590Y-109700000D01*
X149091998Y-110600000D02*
X167600000Y-110600000D01*
X66700000Y-106700000D02*
X66700000Y-107236410D01*
X71800001Y-94100001D02*
X68463589Y-94100001D01*
X69163590Y-109700000D02*
X70063590Y-110600000D01*
X74000000Y-93725000D02*
X74565685Y-93725000D01*
X74845686Y-93444999D02*
X182774999Y-93444999D01*
X182774999Y-93444999D02*
X186765000Y-97435000D01*
X74565685Y-93725000D02*
X74845686Y-93444999D01*
X205815000Y-94665000D02*
X205815000Y-97435000D01*
X78600000Y-91900000D02*
X203050000Y-91900000D01*
X203050000Y-91900000D02*
X205815000Y-94665000D01*
X81749990Y-87450010D02*
X214880010Y-87450010D01*
X214880010Y-87450010D02*
X224865000Y-97435000D01*
X78500000Y-90700000D02*
X81749990Y-87450010D01*
X79774999Y-85625001D02*
X243825001Y-85625001D01*
X79200000Y-86200000D02*
X79774999Y-85625001D01*
X78600000Y-87000000D02*
X259777222Y-87000000D01*
X259777222Y-87000000D02*
X262965000Y-90187778D01*
X262965000Y-90187778D02*
X262965000Y-97435000D01*
X81900000Y-84900000D02*
X79500000Y-82500000D01*
X237200000Y-84900000D02*
X218000000Y-84900000D01*
X84800000Y-84900000D02*
X82100000Y-84900000D01*
X218000000Y-84900000D02*
X199100000Y-84900000D01*
X63806012Y-81199990D02*
X61700000Y-83306002D01*
X103900000Y-84900000D02*
X87200000Y-84900000D01*
X61700000Y-89600000D02*
X63100000Y-91000000D01*
X122900000Y-84900000D02*
X103900000Y-84900000D01*
X82100000Y-84900000D02*
X81900000Y-84900000D01*
X77300000Y-77700000D02*
X74500000Y-74900000D01*
X79500000Y-82500000D02*
X79500000Y-79900000D01*
X79500000Y-79900000D02*
X77300000Y-77700000D01*
X257900000Y-84900000D02*
X256200000Y-84900000D01*
X180100000Y-84900000D02*
X161000000Y-84900000D01*
X63806012Y-81193988D02*
X64500000Y-80500000D01*
X199100000Y-84900000D02*
X180100000Y-84900000D01*
X272900000Y-84900000D02*
X257900000Y-84900000D01*
X61700000Y-83306002D02*
X61700000Y-89600000D01*
X142000000Y-84900000D02*
X122900000Y-84900000D01*
X161000000Y-84900000D02*
X142000000Y-84900000D01*
X68700000Y-74900000D02*
X65600000Y-78000000D01*
X87200000Y-84900000D02*
X84800000Y-84900000D01*
X74500000Y-74900000D02*
X68700000Y-74900000D01*
X64500000Y-80500000D02*
X65500000Y-80500000D01*
X63806012Y-81199990D02*
X63806012Y-81193988D01*
X256200000Y-84900000D02*
X237200000Y-84900000D01*
X103800000Y-103900000D02*
X84800000Y-103900000D01*
X199100000Y-103900000D02*
X180000000Y-103900000D01*
X237100000Y-103900000D02*
X218100000Y-103900000D01*
X180000000Y-103900000D02*
X161000000Y-103900000D01*
X218100000Y-103900000D02*
X199100000Y-103900000D01*
X84800000Y-103900000D02*
X84400000Y-103900000D01*
X275300000Y-103900000D02*
X256300000Y-103900000D01*
X71100000Y-103900000D02*
X84800000Y-103900000D01*
X123000000Y-103900000D02*
X103800000Y-103900000D01*
X161000000Y-103900000D02*
X141900000Y-103900000D01*
X141900000Y-103900000D02*
X123000000Y-103900000D01*
X256300000Y-103900000D02*
X237100000Y-103900000D01*
X257500000Y-123100000D02*
X260200000Y-125800000D01*
X66000000Y-123100000D02*
X65900000Y-123100000D01*
X237200000Y-123100000D02*
X218200000Y-123100000D01*
X213700000Y-123100000D02*
X199000000Y-123100000D01*
X180000000Y-123100000D02*
X161000000Y-123100000D01*
X115018026Y-123100000D02*
X103700000Y-123100000D01*
X122900000Y-123100000D02*
X115018026Y-123100000D01*
X256200000Y-123100000D02*
X237200000Y-123100000D01*
X272600000Y-125800000D02*
X275300000Y-123100000D01*
X161000000Y-123100000D02*
X142000000Y-123100000D01*
X260200000Y-125800000D02*
X272600000Y-125800000D01*
X218200000Y-123100000D02*
X213700000Y-123100000D01*
X199000000Y-123100000D02*
X180000000Y-123100000D01*
X103700000Y-123100000D02*
X84800000Y-123100000D01*
X84800000Y-123100000D02*
X66000000Y-123100000D01*
X256200000Y-123100000D02*
X257500000Y-123100000D01*
X142000000Y-123100000D02*
X122900000Y-123100000D01*
X161000000Y-142400000D02*
X180100000Y-142400000D01*
X218200000Y-142400000D02*
X237300000Y-142400000D01*
X122900000Y-142400000D02*
X141900000Y-142400000D01*
X180100000Y-142400000D02*
X199200000Y-142400000D01*
X103900000Y-142400000D02*
X122900000Y-142400000D01*
X256100000Y-142400000D02*
X275200000Y-142400000D01*
X199200000Y-142400000D02*
X218200000Y-142400000D01*
X84800000Y-142400000D02*
X103900000Y-142400000D01*
X237300000Y-142400000D02*
X256100000Y-142400000D01*
X141900000Y-142400000D02*
X161000000Y-142400000D01*
X65700000Y-142400000D02*
X84800000Y-142400000D01*
X218100000Y-161000000D02*
X199100000Y-161000000D01*
X260334315Y-165600000D02*
X270700000Y-165600000D01*
X63997653Y-136765685D02*
X64000000Y-136768032D01*
X270700000Y-165600000D02*
X275300000Y-161000000D01*
X256300000Y-161000000D02*
X237200000Y-161000000D01*
X122900000Y-161000000D02*
X103900000Y-161000000D01*
X103900000Y-161000000D02*
X84800000Y-161000000D01*
X180000000Y-161000000D02*
X161000000Y-161000000D01*
X84800000Y-161000000D02*
X65800000Y-161000000D01*
X237200000Y-161000000D02*
X218100000Y-161000000D01*
X64000000Y-136768032D02*
X64000000Y-139400000D01*
X161000000Y-161000000D02*
X122900000Y-161000000D01*
X63997653Y-136200000D02*
X63997653Y-136765685D01*
X257500000Y-161000000D02*
X259500000Y-163000000D01*
X259500000Y-164765685D02*
X260334315Y-165600000D01*
X199100000Y-161000000D02*
X180000000Y-161000000D01*
X65800000Y-161000000D02*
X65600000Y-161000000D01*
X256300000Y-161000000D02*
X257500000Y-161000000D01*
X259500000Y-163000000D02*
X259500000Y-164765685D01*
X59725000Y-99171002D02*
X63653998Y-103100000D01*
X63653998Y-103100000D02*
X63800000Y-103100000D01*
X59725000Y-95475000D02*
X59725000Y-99171002D01*
X59725000Y-114525000D02*
X63925000Y-114525000D01*
X63925000Y-114525000D02*
X65700000Y-116300000D01*
X66151472Y-87251472D02*
X66151472Y-87013526D01*
X65950000Y-84800000D02*
X66564998Y-84800000D01*
X66564998Y-84800000D02*
X67464998Y-85700000D01*
X66151472Y-87013526D02*
X67464998Y-85700000D01*
X69800000Y-89575000D02*
X70100000Y-89875000D01*
X68351472Y-88948528D02*
X69800000Y-87500000D01*
X69800000Y-87500000D02*
X69800000Y-89575000D01*
X67848528Y-88948528D02*
X68351472Y-88948528D01*
X70400000Y-78965685D02*
X69600000Y-79765685D01*
X79050000Y-71200000D02*
X79050000Y-72400000D01*
X69600000Y-79765685D02*
X69600000Y-81034315D01*
X79050000Y-72400000D02*
X79250000Y-72600000D01*
X72750000Y-72400000D02*
X72950000Y-72600000D01*
X72750000Y-71200000D02*
X72750000Y-72400000D01*
X70400000Y-78400000D02*
X70400000Y-78965685D01*
X69600000Y-81034315D02*
X69600000Y-81600000D01*
X62800000Y-75225500D02*
X62800000Y-76985930D01*
X62800000Y-76985930D02*
X60646183Y-79139747D01*
X60621663Y-79139747D02*
X60621663Y-85078339D01*
X60646183Y-79139747D02*
X60621663Y-79139747D01*
X61900000Y-74700000D02*
X61900000Y-76900000D01*
X59605773Y-79194227D02*
X59605773Y-85369675D01*
X60300000Y-73100000D02*
X61900000Y-74700000D01*
X60300000Y-72600000D02*
X60300000Y-73100000D01*
X61900000Y-76900000D02*
X59605773Y-79194227D01*
X83570000Y-68520001D02*
X83525000Y-68475001D01*
X85395001Y-68520001D02*
X83570000Y-68520001D01*
X107725000Y-68500000D02*
X105775000Y-68500000D01*
G04 #@! TA.AperFunction,Conductor*
G36*
X68908621Y-80220002D02*
G01*
X68955114Y-80273658D01*
X68966500Y-80326000D01*
X68966500Y-80897476D01*
X68946498Y-80965597D01*
X68934142Y-80981779D01*
X68860960Y-81063056D01*
X68765473Y-81228444D01*
X68706458Y-81410072D01*
X68686496Y-81600000D01*
X68687186Y-81606565D01*
X68703603Y-81762761D01*
X68706458Y-81789928D01*
X68765473Y-81971556D01*
X68860960Y-82136944D01*
X68865378Y-82141851D01*
X68865379Y-82141852D01*
X68984325Y-82273955D01*
X68988747Y-82278866D01*
X69143248Y-82391118D01*
X69149276Y-82393802D01*
X69149278Y-82393803D01*
X69311681Y-82466109D01*
X69317712Y-82468794D01*
X69411112Y-82488647D01*
X69498056Y-82507128D01*
X69498061Y-82507128D01*
X69504513Y-82508500D01*
X69695487Y-82508500D01*
X69701939Y-82507128D01*
X69701944Y-82507128D01*
X69788888Y-82488647D01*
X69882288Y-82468794D01*
X69888319Y-82466109D01*
X70050722Y-82393803D01*
X70050724Y-82393802D01*
X70056752Y-82391118D01*
X70211253Y-82278866D01*
X70222378Y-82266511D01*
X70235747Y-82251663D01*
X70335012Y-82141417D01*
X70395456Y-82104178D01*
X70466440Y-82105530D01*
X70490979Y-82116226D01*
X70535235Y-82141418D01*
X70612590Y-82185451D01*
X70833289Y-82265561D01*
X70838538Y-82266510D01*
X70838541Y-82266511D01*
X70919615Y-82281171D01*
X71064330Y-82307340D01*
X71068469Y-82307535D01*
X71068476Y-82307536D01*
X71087440Y-82308430D01*
X71087449Y-82308430D01*
X71088929Y-82308500D01*
X71253950Y-82308500D01*
X71344767Y-82300794D01*
X71423637Y-82294102D01*
X71423641Y-82294101D01*
X71428948Y-82293651D01*
X71434103Y-82292313D01*
X71434109Y-82292312D01*
X71571972Y-82256530D01*
X71656206Y-82234667D01*
X71661071Y-82232475D01*
X71663648Y-82231568D01*
X71734545Y-82227807D01*
X71796220Y-82262973D01*
X71829093Y-82325901D01*
X71831500Y-82350414D01*
X71831500Y-83920548D01*
X71830973Y-83931731D01*
X71829298Y-83939224D01*
X71829547Y-83947150D01*
X71829547Y-83947151D01*
X71831438Y-84007301D01*
X71831500Y-84011260D01*
X71831500Y-84039171D01*
X71831997Y-84043105D01*
X71831997Y-84043106D01*
X71832005Y-84043171D01*
X71832938Y-84055008D01*
X71834327Y-84099204D01*
X71839978Y-84118654D01*
X71843987Y-84138015D01*
X71846526Y-84158112D01*
X71849445Y-84165483D01*
X71849445Y-84165485D01*
X71862804Y-84199227D01*
X71866649Y-84210457D01*
X71878982Y-84252908D01*
X71883015Y-84259727D01*
X71883017Y-84259732D01*
X71889293Y-84270343D01*
X71897988Y-84288091D01*
X71905448Y-84306932D01*
X71910110Y-84313348D01*
X71910110Y-84313349D01*
X71931436Y-84342702D01*
X71937952Y-84352622D01*
X71960458Y-84390677D01*
X71974779Y-84404998D01*
X71987619Y-84420031D01*
X71999528Y-84436422D01*
X72033605Y-84464613D01*
X72042384Y-84472603D01*
X72463095Y-84893314D01*
X72497121Y-84955626D01*
X72500000Y-84982409D01*
X72500000Y-87651905D01*
X72479998Y-87720026D01*
X72463095Y-87741000D01*
X72448866Y-87755229D01*
X72446386Y-87758426D01*
X72438683Y-87767446D01*
X72408415Y-87799678D01*
X72404596Y-87806624D01*
X72404594Y-87806627D01*
X72398653Y-87817433D01*
X72387802Y-87833952D01*
X72375387Y-87849958D01*
X72372242Y-87857227D01*
X72372239Y-87857231D01*
X72357827Y-87890536D01*
X72352610Y-87901186D01*
X72331306Y-87939939D01*
X72329335Y-87947614D01*
X72329335Y-87947615D01*
X72326268Y-87959561D01*
X72319864Y-87978265D01*
X72311820Y-87996854D01*
X72310581Y-88004677D01*
X72310578Y-88004687D01*
X72304902Y-88040523D01*
X72302496Y-88052143D01*
X72299262Y-88064740D01*
X72291501Y-88094969D01*
X72291501Y-88115223D01*
X72289950Y-88134933D01*
X72286781Y-88154942D01*
X72287527Y-88162834D01*
X72290942Y-88198960D01*
X72291501Y-88210818D01*
X72291501Y-93374000D01*
X72271499Y-93442121D01*
X72217843Y-93488614D01*
X72165501Y-93500000D01*
X72034696Y-93500000D01*
X71993251Y-93491418D01*
X71993030Y-93492179D01*
X71985420Y-93489968D01*
X71978146Y-93486820D01*
X71970323Y-93485581D01*
X71970313Y-93485578D01*
X71934477Y-93479902D01*
X71922857Y-93477496D01*
X71887712Y-93468473D01*
X71887711Y-93468473D01*
X71880031Y-93466501D01*
X71859777Y-93466501D01*
X71840066Y-93464950D01*
X71837535Y-93464549D01*
X71820058Y-93461781D01*
X71812166Y-93462527D01*
X71776040Y-93465942D01*
X71764182Y-93466501D01*
X68542352Y-93466501D01*
X68531168Y-93465974D01*
X68523680Y-93464300D01*
X68515757Y-93464549D01*
X68455622Y-93466439D01*
X68451664Y-93466501D01*
X68423733Y-93466501D01*
X68419818Y-93466996D01*
X68419814Y-93466996D01*
X68419756Y-93467004D01*
X68419727Y-93467007D01*
X68407885Y-93467940D01*
X68363699Y-93469328D01*
X68346333Y-93474373D01*
X68344247Y-93474979D01*
X68324895Y-93478987D01*
X68312657Y-93480533D01*
X68312655Y-93480534D01*
X68304792Y-93481527D01*
X68280481Y-93491152D01*
X68234100Y-93500000D01*
X64148094Y-93500000D01*
X64079973Y-93479998D01*
X64058999Y-93463095D01*
X62892999Y-92297095D01*
X68892001Y-92297095D01*
X68892338Y-92303614D01*
X68902257Y-92399206D01*
X68905149Y-92412600D01*
X68956588Y-92566784D01*
X68962761Y-92579962D01*
X69048063Y-92717807D01*
X69057099Y-92729208D01*
X69171829Y-92843739D01*
X69183240Y-92852751D01*
X69321243Y-92937816D01*
X69334424Y-92943963D01*
X69488710Y-92995138D01*
X69502086Y-92998005D01*
X69596438Y-93007672D01*
X69602854Y-93008000D01*
X69827885Y-93008000D01*
X69843124Y-93003525D01*
X69844329Y-93002135D01*
X69846000Y-92994452D01*
X69846000Y-92989884D01*
X70354000Y-92989884D01*
X70358475Y-93005123D01*
X70359865Y-93006328D01*
X70367548Y-93007999D01*
X70597095Y-93007999D01*
X70603614Y-93007662D01*
X70699206Y-92997743D01*
X70712600Y-92994851D01*
X70866784Y-92943412D01*
X70879962Y-92937239D01*
X71017807Y-92851937D01*
X71029208Y-92842901D01*
X71143739Y-92728171D01*
X71152751Y-92716760D01*
X71237816Y-92578757D01*
X71243963Y-92565576D01*
X71295138Y-92411290D01*
X71298005Y-92397914D01*
X71307672Y-92303562D01*
X71308000Y-92297146D01*
X71308000Y-92197115D01*
X71303525Y-92181876D01*
X71302135Y-92180671D01*
X71294452Y-92179000D01*
X70372115Y-92179000D01*
X70356876Y-92183475D01*
X70355671Y-92184865D01*
X70354000Y-92192548D01*
X70354000Y-92989884D01*
X69846000Y-92989884D01*
X69846000Y-92197115D01*
X69841525Y-92181876D01*
X69840135Y-92180671D01*
X69832452Y-92179000D01*
X68910116Y-92179000D01*
X68894877Y-92183475D01*
X68893672Y-92184865D01*
X68892001Y-92192548D01*
X68892001Y-92297095D01*
X62892999Y-92297095D01*
X62662104Y-92066200D01*
X62628079Y-92003889D01*
X62633144Y-91933074D01*
X62675691Y-91876238D01*
X62742211Y-91851427D01*
X62802446Y-91861998D01*
X62811073Y-91865838D01*
X62817712Y-91868794D01*
X62911113Y-91888647D01*
X62998056Y-91907128D01*
X62998061Y-91907128D01*
X63004513Y-91908500D01*
X63195487Y-91908500D01*
X63201939Y-91907128D01*
X63201944Y-91907128D01*
X63288887Y-91888647D01*
X63382288Y-91868794D01*
X63388323Y-91866107D01*
X63550722Y-91793803D01*
X63550724Y-91793802D01*
X63556752Y-91791118D01*
X63711253Y-91678866D01*
X63722365Y-91666525D01*
X63834621Y-91541852D01*
X63834622Y-91541851D01*
X63839040Y-91536944D01*
X63934527Y-91371556D01*
X63993542Y-91189928D01*
X64000700Y-91121829D01*
X64012814Y-91006565D01*
X64013504Y-91000000D01*
X63993542Y-90810072D01*
X63934527Y-90628444D01*
X63839040Y-90463056D01*
X63711253Y-90321134D01*
X63556752Y-90208882D01*
X63550724Y-90206198D01*
X63550722Y-90206197D01*
X63388319Y-90133891D01*
X63388318Y-90133891D01*
X63382288Y-90131206D01*
X63288888Y-90111353D01*
X63201944Y-90092872D01*
X63201939Y-90092872D01*
X63195487Y-90091500D01*
X63139595Y-90091500D01*
X63071474Y-90071498D01*
X63050499Y-90054595D01*
X62370404Y-89374499D01*
X62336379Y-89312187D01*
X62333500Y-89285404D01*
X62333500Y-89273514D01*
X66115658Y-89273514D01*
X66115789Y-89275348D01*
X66120038Y-89281960D01*
X66142044Y-89303966D01*
X66147128Y-89308528D01*
X66187001Y-89340589D01*
X66200352Y-89348810D01*
X66317451Y-89402050D01*
X66334514Y-89407040D01*
X66421568Y-89419508D01*
X66486165Y-89448965D01*
X66524582Y-89508671D01*
X66528429Y-89526355D01*
X66542276Y-89623044D01*
X66602563Y-89755640D01*
X66607510Y-89761793D01*
X66607512Y-89761796D01*
X66628300Y-89787650D01*
X66641756Y-89804386D01*
X66992670Y-90155300D01*
X66995332Y-90157440D01*
X67035260Y-90189544D01*
X67035263Y-90189546D01*
X67041416Y-90194493D01*
X67081599Y-90212763D01*
X67164379Y-90250400D01*
X67174012Y-90254780D01*
X67182895Y-90256052D01*
X67182898Y-90256053D01*
X67309309Y-90274156D01*
X67318198Y-90275429D01*
X67327087Y-90274156D01*
X67453498Y-90256053D01*
X67453501Y-90256052D01*
X67462384Y-90254780D01*
X67472018Y-90250400D01*
X67554797Y-90212763D01*
X67594980Y-90194493D01*
X67601133Y-90189546D01*
X67601136Y-90189544D01*
X67641064Y-90157440D01*
X67643726Y-90155300D01*
X68180093Y-89618933D01*
X68242405Y-89584907D01*
X68269188Y-89582028D01*
X68272705Y-89582028D01*
X68283888Y-89582555D01*
X68291381Y-89584230D01*
X68299307Y-89583981D01*
X68299308Y-89583981D01*
X68359458Y-89582090D01*
X68363417Y-89582028D01*
X68391328Y-89582028D01*
X68395263Y-89581531D01*
X68395328Y-89581523D01*
X68407165Y-89580590D01*
X68439423Y-89579576D01*
X68443442Y-89579450D01*
X68451361Y-89579201D01*
X68470815Y-89573549D01*
X68490172Y-89569541D01*
X68502402Y-89567996D01*
X68502403Y-89567996D01*
X68510269Y-89567002D01*
X68517640Y-89564083D01*
X68517642Y-89564083D01*
X68551384Y-89550724D01*
X68562614Y-89546879D01*
X68597455Y-89536757D01*
X68597456Y-89536757D01*
X68605065Y-89534546D01*
X68611884Y-89530513D01*
X68611889Y-89530511D01*
X68622500Y-89524235D01*
X68640248Y-89515540D01*
X68659089Y-89508080D01*
X68691440Y-89484576D01*
X68758308Y-89460718D01*
X68827459Y-89476799D01*
X68876939Y-89527714D01*
X68891500Y-89586513D01*
X68891500Y-90250400D01*
X68891837Y-90253646D01*
X68891837Y-90253650D01*
X68899349Y-90326045D01*
X68902474Y-90356166D01*
X68958450Y-90523946D01*
X69051522Y-90674348D01*
X69176697Y-90799305D01*
X69181235Y-90802102D01*
X69221824Y-90859353D01*
X69225054Y-90930276D01*
X69189428Y-90991687D01*
X69180932Y-90999062D01*
X69170793Y-91007098D01*
X69056261Y-91121829D01*
X69047249Y-91133240D01*
X68962184Y-91271243D01*
X68956037Y-91284424D01*
X68904862Y-91438710D01*
X68901995Y-91452086D01*
X68892328Y-91546438D01*
X68892000Y-91552855D01*
X68892000Y-91652885D01*
X68896475Y-91668124D01*
X68897865Y-91669329D01*
X68905548Y-91671000D01*
X71289884Y-91671000D01*
X71305123Y-91666525D01*
X71306328Y-91665135D01*
X71307999Y-91657452D01*
X71307999Y-91552905D01*
X71307662Y-91546386D01*
X71297743Y-91450794D01*
X71294851Y-91437400D01*
X71243412Y-91283216D01*
X71237239Y-91270038D01*
X71151937Y-91132193D01*
X71142901Y-91120792D01*
X71028172Y-91006262D01*
X71019238Y-90999206D01*
X70978177Y-90941288D01*
X70974947Y-90870365D01*
X71010574Y-90808954D01*
X71018407Y-90802154D01*
X71024348Y-90798478D01*
X71149305Y-90673303D01*
X71153146Y-90667072D01*
X71238275Y-90528968D01*
X71238276Y-90528966D01*
X71242115Y-90522738D01*
X71297797Y-90354861D01*
X71300750Y-90326045D01*
X71302909Y-90304969D01*
X71308500Y-90250400D01*
X71308500Y-89499600D01*
X71303672Y-89453070D01*
X71298238Y-89400692D01*
X71298237Y-89400688D01*
X71297526Y-89393834D01*
X71291076Y-89374499D01*
X71243868Y-89233002D01*
X71241550Y-89226054D01*
X71148478Y-89075652D01*
X71023303Y-88950695D01*
X70872738Y-88857885D01*
X70792995Y-88831436D01*
X70711389Y-88804368D01*
X70711387Y-88804368D01*
X70704861Y-88802203D01*
X70698025Y-88801503D01*
X70698022Y-88801502D01*
X70654969Y-88797091D01*
X70600400Y-88791500D01*
X70559500Y-88791500D01*
X70491379Y-88771498D01*
X70444886Y-88717842D01*
X70433500Y-88665500D01*
X70433500Y-88202524D01*
X70453502Y-88134403D01*
X70465858Y-88118221D01*
X70539040Y-88036944D01*
X70634527Y-87871556D01*
X70693542Y-87689928D01*
X70697539Y-87651905D01*
X70712814Y-87506565D01*
X70713504Y-87500000D01*
X70706621Y-87434514D01*
X70694232Y-87316635D01*
X70694232Y-87316633D01*
X70693542Y-87310072D01*
X70634527Y-87128444D01*
X70539040Y-86963056D01*
X70518668Y-86940430D01*
X70415675Y-86826045D01*
X70415674Y-86826044D01*
X70411253Y-86821134D01*
X70284529Y-86729063D01*
X70262094Y-86712763D01*
X70262093Y-86712762D01*
X70256752Y-86708882D01*
X70250724Y-86706198D01*
X70250722Y-86706197D01*
X70088319Y-86633891D01*
X70088318Y-86633891D01*
X70082288Y-86631206D01*
X69988887Y-86611353D01*
X69901944Y-86592872D01*
X69901939Y-86592872D01*
X69895487Y-86591500D01*
X69704513Y-86591500D01*
X69698061Y-86592872D01*
X69698056Y-86592872D01*
X69611113Y-86611353D01*
X69517712Y-86631206D01*
X69511682Y-86633891D01*
X69511681Y-86633891D01*
X69349278Y-86706197D01*
X69349276Y-86706198D01*
X69343248Y-86708882D01*
X69337907Y-86712762D01*
X69337906Y-86712763D01*
X69315471Y-86729063D01*
X69188747Y-86821134D01*
X69184326Y-86826044D01*
X69184325Y-86826045D01*
X69081333Y-86940430D01*
X69060960Y-86963056D01*
X68965473Y-87128444D01*
X68906458Y-87310072D01*
X68905768Y-87316633D01*
X68905768Y-87316635D01*
X68889093Y-87475293D01*
X68862080Y-87540950D01*
X68852878Y-87551218D01*
X68748939Y-87655157D01*
X68686627Y-87689183D01*
X68615812Y-87684118D01*
X68607693Y-87680763D01*
X68531214Y-87645990D01*
X68531210Y-87645989D01*
X68523044Y-87642276D01*
X68426369Y-87628431D01*
X68361776Y-87598976D01*
X68323359Y-87539271D01*
X68319508Y-87521568D01*
X68307040Y-87434514D01*
X68302050Y-87417451D01*
X68248811Y-87300354D01*
X68240588Y-87287000D01*
X68208521Y-87247118D01*
X68203979Y-87242056D01*
X68185192Y-87223270D01*
X68171251Y-87215658D01*
X68169416Y-87215789D01*
X68162802Y-87220040D01*
X67000000Y-88382843D01*
X66123272Y-89259570D01*
X66115658Y-89273514D01*
X62333500Y-89273514D01*
X62333500Y-85200400D01*
X64791500Y-85200400D01*
X64802474Y-85306166D01*
X64804655Y-85312702D01*
X64804655Y-85312704D01*
X64812003Y-85334729D01*
X64858450Y-85473946D01*
X64951522Y-85624348D01*
X65076697Y-85749305D01*
X65082927Y-85753145D01*
X65082928Y-85753146D01*
X65127665Y-85780722D01*
X65227262Y-85842115D01*
X65307005Y-85868564D01*
X65388611Y-85895632D01*
X65388613Y-85895632D01*
X65395139Y-85897797D01*
X65401975Y-85898497D01*
X65401978Y-85898498D01*
X65445031Y-85902909D01*
X65499600Y-85908500D01*
X66056403Y-85908500D01*
X66124524Y-85928502D01*
X66171017Y-85982158D01*
X66181121Y-86052432D01*
X66151627Y-86117012D01*
X66145498Y-86123595D01*
X65759219Y-86509874D01*
X65750933Y-86517414D01*
X65744454Y-86521526D01*
X65698777Y-86570168D01*
X65697829Y-86571177D01*
X65695074Y-86574019D01*
X65675337Y-86593756D01*
X65672857Y-86596953D01*
X65665154Y-86605973D01*
X65634886Y-86638205D01*
X65631067Y-86645151D01*
X65631065Y-86645154D01*
X65625124Y-86655960D01*
X65614273Y-86672479D01*
X65601858Y-86688485D01*
X65598713Y-86695754D01*
X65598710Y-86695758D01*
X65584298Y-86729063D01*
X65579081Y-86739713D01*
X65557777Y-86778466D01*
X65555806Y-86786141D01*
X65555806Y-86786142D01*
X65552739Y-86798088D01*
X65546335Y-86816792D01*
X65538291Y-86835381D01*
X65537256Y-86841913D01*
X65505692Y-86895282D01*
X64944700Y-87456274D01*
X64942560Y-87458936D01*
X64910456Y-87498864D01*
X64910454Y-87498867D01*
X64905507Y-87505020D01*
X64845220Y-87637616D01*
X64843948Y-87646499D01*
X64843947Y-87646502D01*
X64827929Y-87758355D01*
X64824571Y-87781802D01*
X64825844Y-87790691D01*
X64841670Y-87901197D01*
X64845220Y-87925988D01*
X64848934Y-87934156D01*
X64848934Y-87934157D01*
X64864851Y-87969165D01*
X64905507Y-88058584D01*
X64910454Y-88064737D01*
X64910456Y-88064740D01*
X64928586Y-88087288D01*
X64944700Y-88107330D01*
X65295614Y-88458244D01*
X65298276Y-88460384D01*
X65338204Y-88492488D01*
X65338207Y-88492490D01*
X65344360Y-88497437D01*
X65476956Y-88557724D01*
X65573631Y-88571569D01*
X65638224Y-88601024D01*
X65676641Y-88660729D01*
X65680492Y-88678432D01*
X65692960Y-88765486D01*
X65697950Y-88782549D01*
X65751189Y-88899646D01*
X65759412Y-88913000D01*
X65791479Y-88952882D01*
X65796021Y-88957944D01*
X65814808Y-88976730D01*
X65828749Y-88984342D01*
X65830584Y-88984211D01*
X65837198Y-88979960D01*
X67000000Y-87817157D01*
X67876728Y-86940430D01*
X67884342Y-86926486D01*
X67884211Y-86924652D01*
X67879962Y-86918040D01*
X67857956Y-86896034D01*
X67852872Y-86891472D01*
X67812999Y-86859411D01*
X67799651Y-86851191D01*
X67708082Y-86809558D01*
X67654349Y-86763155D01*
X67634233Y-86695068D01*
X67654121Y-86626913D01*
X67707699Y-86580331D01*
X67734039Y-86571610D01*
X67740825Y-86570168D01*
X67740831Y-86570166D01*
X67747286Y-86568794D01*
X67840477Y-86527303D01*
X67915720Y-86493803D01*
X67915722Y-86493802D01*
X67921750Y-86491118D01*
X68076251Y-86378866D01*
X68204038Y-86236944D01*
X68299525Y-86071556D01*
X68358540Y-85889928D01*
X68378502Y-85700000D01*
X68372506Y-85642953D01*
X68359230Y-85516635D01*
X68359230Y-85516633D01*
X68358540Y-85510072D01*
X68299525Y-85328444D01*
X68290438Y-85312704D01*
X68227475Y-85203650D01*
X68204038Y-85163056D01*
X68076251Y-85021134D01*
X67921750Y-84908882D01*
X67915722Y-84906198D01*
X67915720Y-84906197D01*
X67753317Y-84833891D01*
X67753316Y-84833891D01*
X67747286Y-84831206D01*
X67653885Y-84811353D01*
X67566942Y-84792872D01*
X67566937Y-84792872D01*
X67560485Y-84791500D01*
X67504593Y-84791500D01*
X67436472Y-84771498D01*
X67415498Y-84754595D01*
X67245405Y-84584502D01*
X67211379Y-84522190D01*
X67208500Y-84495407D01*
X67208500Y-84449600D01*
X67207133Y-84436422D01*
X67198238Y-84350692D01*
X67198237Y-84350688D01*
X67197526Y-84343834D01*
X67187356Y-84313349D01*
X67143868Y-84183002D01*
X67141550Y-84176054D01*
X67048478Y-84025652D01*
X66923303Y-83900695D01*
X66918765Y-83897898D01*
X66878176Y-83840647D01*
X66874946Y-83769724D01*
X66910572Y-83708313D01*
X66919068Y-83700938D01*
X66929207Y-83692902D01*
X67043739Y-83578171D01*
X67052751Y-83566760D01*
X67137816Y-83428757D01*
X67143963Y-83415576D01*
X67195138Y-83261290D01*
X67198005Y-83247914D01*
X67207672Y-83153562D01*
X67208000Y-83147146D01*
X67208000Y-83047115D01*
X67203525Y-83031876D01*
X67202135Y-83030671D01*
X67194452Y-83029000D01*
X64810116Y-83029000D01*
X64794877Y-83033475D01*
X64793672Y-83034865D01*
X64792001Y-83042548D01*
X64792001Y-83147095D01*
X64792338Y-83153614D01*
X64802257Y-83249206D01*
X64805149Y-83262600D01*
X64856588Y-83416784D01*
X64862761Y-83429962D01*
X64948063Y-83567807D01*
X64957099Y-83579208D01*
X65071828Y-83693738D01*
X65080762Y-83700794D01*
X65121823Y-83758712D01*
X65125053Y-83829635D01*
X65089426Y-83891046D01*
X65081593Y-83897846D01*
X65075652Y-83901522D01*
X65070479Y-83906704D01*
X65044820Y-83932408D01*
X64950695Y-84026697D01*
X64946855Y-84032927D01*
X64946854Y-84032928D01*
X64874539Y-84150245D01*
X64857885Y-84177262D01*
X64855581Y-84184209D01*
X64814876Y-84306932D01*
X64802203Y-84345139D01*
X64791500Y-84449600D01*
X64791500Y-85200400D01*
X62333500Y-85200400D01*
X62333500Y-83620596D01*
X62353502Y-83552475D01*
X62370405Y-83531501D01*
X63399022Y-82502885D01*
X64792000Y-82502885D01*
X64796475Y-82518124D01*
X64797865Y-82519329D01*
X64805548Y-82521000D01*
X65727885Y-82521000D01*
X65743124Y-82516525D01*
X65744329Y-82515135D01*
X65746000Y-82507452D01*
X65746000Y-82502885D01*
X66254000Y-82502885D01*
X66258475Y-82518124D01*
X66259865Y-82519329D01*
X66267548Y-82521000D01*
X67189884Y-82521000D01*
X67205123Y-82516525D01*
X67206328Y-82515135D01*
X67207999Y-82507452D01*
X67207999Y-82402905D01*
X67207662Y-82396386D01*
X67197743Y-82300794D01*
X67194851Y-82287400D01*
X67143412Y-82133216D01*
X67137239Y-82120038D01*
X67051937Y-81982193D01*
X67042901Y-81970792D01*
X66928171Y-81856261D01*
X66916760Y-81847249D01*
X66778757Y-81762184D01*
X66765576Y-81756037D01*
X66611290Y-81704862D01*
X66597914Y-81701995D01*
X66503562Y-81692328D01*
X66497145Y-81692000D01*
X66272115Y-81692000D01*
X66256876Y-81696475D01*
X66255671Y-81697865D01*
X66254000Y-81705548D01*
X66254000Y-82502885D01*
X65746000Y-82502885D01*
X65746000Y-81710116D01*
X65741525Y-81694877D01*
X65740135Y-81693672D01*
X65732452Y-81692001D01*
X65502905Y-81692001D01*
X65496386Y-81692338D01*
X65400794Y-81702257D01*
X65387400Y-81705149D01*
X65233216Y-81756588D01*
X65220038Y-81762761D01*
X65082193Y-81848063D01*
X65070792Y-81857099D01*
X64956261Y-81971829D01*
X64947249Y-81983240D01*
X64862184Y-82121243D01*
X64856037Y-82134424D01*
X64804862Y-82288710D01*
X64801995Y-82302086D01*
X64792328Y-82396438D01*
X64792000Y-82402855D01*
X64792000Y-82502885D01*
X63399022Y-82502885D01*
X64198265Y-81703642D01*
X64206551Y-81696102D01*
X64213030Y-81691990D01*
X64259656Y-81642338D01*
X64262410Y-81639497D01*
X64282147Y-81619760D01*
X64284627Y-81616563D01*
X64292332Y-81607541D01*
X64299414Y-81600000D01*
X64322598Y-81575311D01*
X64323623Y-81573447D01*
X64330449Y-81565455D01*
X64714333Y-81181571D01*
X64776645Y-81147545D01*
X64847460Y-81152610D01*
X64886317Y-81176167D01*
X64888747Y-81178866D01*
X64910329Y-81194546D01*
X64965636Y-81234729D01*
X65043248Y-81291118D01*
X65049276Y-81293802D01*
X65049278Y-81293803D01*
X65211681Y-81366109D01*
X65217712Y-81368794D01*
X65311113Y-81388647D01*
X65398056Y-81407128D01*
X65398061Y-81407128D01*
X65404513Y-81408500D01*
X65595487Y-81408500D01*
X65601939Y-81407128D01*
X65601944Y-81407128D01*
X65688887Y-81388647D01*
X65782288Y-81368794D01*
X65788319Y-81366109D01*
X65950722Y-81293803D01*
X65950724Y-81293802D01*
X65956752Y-81291118D01*
X66111253Y-81178866D01*
X66215529Y-81063056D01*
X66234621Y-81041852D01*
X66234622Y-81041851D01*
X66239040Y-81036944D01*
X66334527Y-80871556D01*
X66393542Y-80689928D01*
X66413504Y-80500000D01*
X66396600Y-80339170D01*
X66409372Y-80269332D01*
X66457874Y-80217486D01*
X66521910Y-80200000D01*
X68840500Y-80200000D01*
X68908621Y-80220002D01*
G37*
G04 #@! TD.AperFunction*
M02*
