M48
; DRILL file {KiCad (6.0.4)} date Wed Nov 16 12:11:47 2022
; FORMAT={-:-/ absolute / metric / decimal}
; #@! TF.CreationDate,2022-11-16T12:11:47+01:00
; #@! TF.GenerationSoftware,Kicad,Pcbnew,(6.0.4)
; #@! TF.FileFunction,NonPlated,1,2,NPTH
FMAT,2
METRIC
; #@! TA.AperFunction,NonPlated,NPTH,ComponentDrill
T1C1.750
; #@! TA.AperFunction,NonPlated,NPTH,ComponentDrill
T2C3.048
; #@! TA.AperFunction,NonPlated,NPTH,ComponentDrill
T3C3.988
%
G90
G05
T1
X52.145Y-80.925
X52.145Y-99.975
X52.145Y-119.025
X52.145Y-138.075
X52.145Y-157.125
X62.305Y-80.925
X62.305Y-99.975
X62.305Y-119.025
X62.305Y-138.075
X62.305Y-157.125
X71.195Y-80.925
X71.195Y-99.975
X71.195Y-119.025
X71.195Y-138.075
X71.195Y-157.125
X81.355Y-80.925
X81.355Y-99.975
X81.355Y-119.025
X81.355Y-138.075
X81.355Y-157.125
X90.245Y-80.925
X90.245Y-99.975
X90.245Y-119.025
X90.245Y-138.075
X90.245Y-157.125
X100.405Y-80.925
X100.405Y-99.975
X100.405Y-119.025
X100.405Y-138.075
X100.405Y-157.125
X109.295Y-80.925
X109.295Y-99.975
X109.295Y-119.025
X109.295Y-138.075
X109.295Y-157.125
X119.455Y-80.925
X119.455Y-99.975
X119.455Y-119.025
X119.455Y-138.075
X119.455Y-157.125
X128.345Y-80.925
X128.345Y-99.975
X128.345Y-119.025
X128.345Y-138.075
X137.87Y-157.125
X138.505Y-80.925
X138.505Y-99.975
X138.505Y-119.025
X138.505Y-138.075
X147.395Y-80.925
X147.395Y-99.975
X147.395Y-119.025
X147.395Y-138.075
X148.03Y-157.125
X157.555Y-80.925
X157.555Y-99.975
X157.555Y-119.025
X157.555Y-138.075
X166.445Y-80.925
X166.445Y-99.975
X166.445Y-119.025
X166.445Y-138.075
X166.445Y-157.125
X176.605Y-80.925
X176.605Y-99.975
X176.605Y-119.025
X176.605Y-138.075
X176.605Y-157.125
X185.495Y-80.925
X185.495Y-99.975
X185.495Y-119.025
X185.495Y-138.075
X185.495Y-157.125
X195.655Y-80.925
X195.655Y-99.975
X195.655Y-119.025
X195.655Y-138.075
X195.655Y-157.125
X204.545Y-80.925
X204.545Y-99.975
X204.545Y-119.025
X204.545Y-138.075
X204.545Y-157.125
X214.705Y-80.925
X214.705Y-99.975
X214.705Y-119.025
X214.705Y-138.075
X214.705Y-157.125
X223.595Y-80.925
X223.595Y-99.975
X223.595Y-119.025
X223.595Y-138.075
X223.595Y-157.125
X233.755Y-80.925
X233.755Y-99.975
X233.755Y-119.025
X233.755Y-138.075
X233.755Y-157.125
X242.645Y-80.925
X242.645Y-99.975
X242.645Y-119.025
X242.645Y-138.075
X242.645Y-157.125
X252.805Y-80.925
X252.805Y-99.975
X252.805Y-119.025
X252.805Y-138.075
X252.805Y-157.125
X261.695Y-80.925
X261.695Y-99.975
X261.695Y-119.025
X261.695Y-138.075
X261.695Y-157.125
X271.855Y-80.925
X271.855Y-99.975
X271.855Y-119.025
X271.855Y-138.075
X271.855Y-157.125
T2
X131.012Y-150.14
X154.888Y-150.14
T3
X57.225Y-80.925
X57.225Y-99.975
X57.225Y-119.025
X57.225Y-138.075
X57.225Y-157.125
X76.275Y-80.925
X76.275Y-99.975
X76.275Y-119.025
X76.275Y-138.075
X76.275Y-157.125
X95.325Y-80.925
X95.325Y-99.975
X95.325Y-119.025
X95.325Y-138.075
X95.325Y-157.125
X114.375Y-80.925
X114.375Y-99.975
X114.375Y-119.025
X114.375Y-138.075
X114.375Y-157.125
X131.012Y-165.38
X133.425Y-80.925
X133.425Y-99.975
X133.425Y-119.025
X133.425Y-138.075
X142.95Y-157.125
X152.475Y-80.925
X152.475Y-99.975
X152.475Y-119.025
X152.475Y-138.075
X154.888Y-165.38
X171.525Y-80.925
X171.525Y-99.975
X171.525Y-119.025
X171.525Y-138.075
X171.525Y-157.125
X190.575Y-80.925
X190.575Y-99.975
X190.575Y-119.025
X190.575Y-138.075
X190.575Y-157.125
X209.625Y-80.925
X209.625Y-99.975
X209.625Y-119.025
X209.625Y-138.075
X209.625Y-157.125
X228.675Y-80.925
X228.675Y-99.975
X228.675Y-119.025
X228.675Y-138.075
X228.675Y-157.125
X247.725Y-80.925
X247.725Y-99.975
X247.725Y-119.025
X247.725Y-138.075
X247.725Y-157.125
X266.775Y-80.925
X266.775Y-99.975
X266.775Y-119.025
X266.775Y-138.075
X266.775Y-157.125
T0
M30
