M48
; DRILL file {KiCad (6.0.4)} date Wed Nov 16 12:11:47 2022
; FORMAT={-:-/ absolute / metric / decimal}
; #@! TF.CreationDate,2022-11-16T12:11:47+01:00
; #@! TF.GenerationSoftware,Kicad,Pcbnew,(6.0.4)
; #@! TF.FileFunction,Plated,1,2,PTH
FMAT,2
METRIC
; #@! TA.AperFunction,Plated,PTH,ViaDrill
T1C0.400
; #@! TA.AperFunction,Plated,PTH,ComponentDrill
T2C0.500
; #@! TA.AperFunction,Plated,PTH,ComponentDrill
T3C0.550
; #@! TA.AperFunction,Plated,PTH,ComponentDrill
T4C1.470
%
G90
G05
T1
X59.5Y-89.8
X59.606Y-85.37
X60.3Y-72.6
X60.622Y-85.078
X61.3Y-70.1
X61.8Y-105.9
X62.3Y-102.9
X62.6Y-106.6
X62.7Y-98.0
X62.8Y-75.225
X63.1Y-91.0
X63.8Y-88.0
X63.8Y-89.2
X63.8Y-103.1
X63.998Y-136.2
X64.0Y-104.5
X64.0Y-139.4
X65.5Y-80.5
X65.5Y-92.5
X65.6Y-78.0
X65.7Y-116.3
X65.7Y-142.4
X65.798Y-97.5
X65.8Y-161.0
X65.9Y-123.1
X66.8Y-92.5
X67.3Y-84.2
X67.465Y-85.7
X68.0Y-92.5
X69.531Y-97.471
X69.6Y-81.6
X69.8Y-87.5
X70.1Y-91.925
X70.228Y-96.755
X70.4Y-78.4
X70.837Y-95.961
X71.1Y-103.9
X71.549Y-95.259
X71.6Y-102.0
X71.9Y-89.2
X72.2Y-94.5
X72.95Y-72.6
X73.0Y-68.75
X73.19Y-82.6
X74.0Y-93.725
X74.3Y-102.9
X74.5Y-86.6
X74.8Y-91.669
X78.5Y-90.7
X78.6Y-87.0
X78.6Y-91.9
X79.2Y-86.2
X79.25Y-68.75
X79.25Y-72.6
X83.525Y-68.475
X84.8Y-84.9
X84.8Y-103.9
X84.8Y-123.1
X84.8Y-142.4
X84.8Y-161.0
X87.445Y-68.52
X91.515Y-105.6
X103.7Y-123.1
X103.8Y-103.9
X103.9Y-84.9
X103.9Y-142.4
X103.9Y-161.0
X105.775Y-68.5
X109.775Y-68.5
X110.565Y-106.4
X122.9Y-84.9
X122.9Y-123.1
X122.9Y-142.4
X122.9Y-161.0
X123.0Y-103.9
X129.615Y-106.9
X141.9Y-103.9
X141.9Y-142.4
X142.0Y-84.9
X142.0Y-123.1
X148.665Y-109.1
X161.0Y-84.9
X161.0Y-103.9
X161.0Y-123.1
X161.0Y-142.4
X161.0Y-161.0
X167.6Y-110.6
X180.0Y-103.9
X180.0Y-123.1
X180.0Y-161.0
X180.1Y-84.9
X180.1Y-142.4
X199.0Y-123.1
X199.1Y-84.9
X199.1Y-103.9
X199.1Y-161.0
X199.2Y-142.4
X218.0Y-84.9
X218.1Y-103.9
X218.1Y-161.0
X218.2Y-123.1
X218.2Y-142.4
X237.1Y-103.9
X237.2Y-84.9
X237.2Y-123.1
X237.2Y-161.0
X237.3Y-142.4
X243.825Y-85.625
X256.1Y-142.4
X256.2Y-84.9
X256.2Y-123.1
X256.3Y-103.9
X256.3Y-161.0
X272.9Y-84.9
X275.2Y-142.4
X275.3Y-103.9
X275.3Y-123.1
X275.3Y-161.0
T4
X53.415Y-78.385
X53.415Y-97.435
X53.415Y-116.485
X53.415Y-135.535
X53.415Y-154.585
X54.725Y-76.925
X54.725Y-95.975
X54.725Y-115.025
X54.725Y-134.075
X54.725Y-153.125
X59.725Y-76.425
X59.725Y-95.475
X59.725Y-114.525
X59.725Y-133.575
X59.725Y-152.625
X59.765Y-75.845
X59.765Y-94.895
X59.765Y-113.945
X59.765Y-132.995
X59.765Y-152.045
X72.465Y-78.385
X72.465Y-97.435
X72.465Y-116.485
X72.465Y-135.535
X72.465Y-154.585
X73.775Y-76.925
X73.775Y-95.975
X73.775Y-115.025
X73.775Y-134.075
X73.775Y-153.125
X78.775Y-76.425
X78.775Y-95.475
X78.775Y-114.525
X78.775Y-133.575
X78.775Y-152.625
X78.815Y-75.845
X78.815Y-94.895
X78.815Y-113.945
X78.815Y-132.995
X78.815Y-152.045
X91.515Y-78.385
X91.515Y-97.435
X91.515Y-116.485
X91.515Y-135.535
X91.515Y-154.585
X92.825Y-76.925
X92.825Y-95.975
X92.825Y-115.025
X92.825Y-134.075
X92.825Y-153.125
X97.825Y-76.425
X97.825Y-95.475
X97.825Y-114.525
X97.825Y-133.575
X97.825Y-152.625
X97.865Y-75.845
X97.865Y-94.895
X97.865Y-113.945
X97.865Y-132.995
X97.865Y-152.045
X110.565Y-78.385
X110.565Y-97.435
X110.565Y-116.485
X110.565Y-135.535
X110.565Y-154.585
X111.875Y-76.925
X111.875Y-95.975
X111.875Y-115.025
X111.875Y-134.075
X111.875Y-153.125
X116.875Y-76.425
X116.875Y-95.475
X116.875Y-114.525
X116.875Y-133.575
X116.875Y-152.625
X116.915Y-75.845
X116.915Y-94.895
X116.915Y-113.945
X116.915Y-132.995
X116.915Y-152.045
X129.615Y-78.385
X129.615Y-97.435
X129.615Y-116.485
X129.615Y-135.535
X130.925Y-76.925
X130.925Y-95.975
X130.925Y-115.025
X130.925Y-134.075
X135.925Y-76.425
X135.925Y-95.475
X135.925Y-114.525
X135.925Y-133.575
X135.965Y-75.845
X135.965Y-94.895
X135.965Y-113.945
X135.965Y-132.995
X139.14Y-154.585
X140.45Y-153.125
X145.45Y-152.625
X145.49Y-152.045
X148.665Y-78.385
X148.665Y-97.435
X148.665Y-116.485
X148.665Y-135.535
X149.975Y-76.925
X149.975Y-95.975
X149.975Y-115.025
X149.975Y-134.075
X154.975Y-76.425
X154.975Y-95.475
X154.975Y-114.525
X154.975Y-133.575
X155.015Y-75.845
X155.015Y-94.895
X155.015Y-113.945
X155.015Y-132.995
X167.715Y-78.385
X167.715Y-97.435
X167.715Y-116.485
X167.715Y-135.535
X167.715Y-154.585
X169.025Y-76.925
X169.025Y-95.975
X169.025Y-115.025
X169.025Y-134.075
X169.025Y-153.125
X174.025Y-76.425
X174.025Y-95.475
X174.025Y-114.525
X174.025Y-133.575
X174.025Y-152.625
X174.065Y-75.845
X174.065Y-94.895
X174.065Y-113.945
X174.065Y-132.995
X174.065Y-152.045
X186.765Y-78.385
X186.765Y-97.435
X186.765Y-116.485
X186.765Y-135.535
X186.765Y-154.585
X188.075Y-76.925
X188.075Y-95.975
X188.075Y-115.025
X188.075Y-134.075
X188.075Y-153.125
X193.075Y-76.425
X193.075Y-95.475
X193.075Y-114.525
X193.075Y-133.575
X193.075Y-152.625
X193.115Y-75.845
X193.115Y-94.895
X193.115Y-113.945
X193.115Y-132.995
X193.115Y-152.045
X205.815Y-78.385
X205.815Y-97.435
X205.815Y-116.485
X205.815Y-135.535
X205.815Y-154.585
X207.125Y-76.925
X207.125Y-95.975
X207.125Y-115.025
X207.125Y-134.075
X207.125Y-153.125
X212.125Y-76.425
X212.125Y-95.475
X212.125Y-114.525
X212.125Y-133.575
X212.125Y-152.625
X212.165Y-75.845
X212.165Y-94.895
X212.165Y-113.945
X212.165Y-132.995
X212.165Y-152.045
X224.865Y-78.385
X224.865Y-97.435
X224.865Y-116.485
X224.865Y-135.535
X224.865Y-154.585
X226.175Y-76.925
X226.175Y-95.975
X226.175Y-115.025
X226.175Y-134.075
X226.175Y-153.125
X231.175Y-76.425
X231.175Y-95.475
X231.175Y-114.525
X231.175Y-133.575
X231.175Y-152.625
X231.215Y-75.845
X231.215Y-94.895
X231.215Y-113.945
X231.215Y-132.995
X231.215Y-152.045
X243.915Y-78.385
X243.915Y-97.435
X243.915Y-116.485
X243.915Y-135.535
X243.915Y-154.585
X245.225Y-76.925
X245.225Y-95.975
X245.225Y-115.025
X245.225Y-134.075
X245.225Y-153.125
X250.225Y-76.425
X250.225Y-95.475
X250.225Y-114.525
X250.225Y-133.575
X250.225Y-152.625
X250.265Y-75.845
X250.265Y-94.895
X250.265Y-113.945
X250.265Y-132.995
X250.265Y-152.045
X262.965Y-78.385
X262.965Y-97.435
X262.965Y-116.485
X262.965Y-135.535
X262.965Y-154.585
X264.275Y-76.925
X264.275Y-95.975
X264.275Y-115.025
X264.275Y-134.075
X264.275Y-153.125
X269.275Y-76.425
X269.275Y-95.475
X269.275Y-114.525
X269.275Y-133.575
X269.275Y-152.625
X269.315Y-75.845
X269.315Y-94.895
X269.315Y-113.945
X269.315Y-132.995
X269.315Y-152.045
T2
G00X63.2Y-67.075
M15
G01X63.2Y-67.725
M16
G05
G00X70.2Y-67.075
M15
G01X70.2Y-67.725
M16
G05
T3
G00X64.05Y-70.1
M15
G01X64.35Y-70.1
M16
G05
G00X69.05Y-70.1
M15
G01X69.35Y-70.1
M16
G05
T0
M30
