G04 #@! TF.GenerationSoftware,KiCad,Pcbnew,(6.0.4)*
G04 #@! TF.CreationDate,2023-01-11T07:52:03+01:00*
G04 #@! TF.ProjectId,keyboard,6b657962-6f61-4726-942e-6b696361645f,rev?*
G04 #@! TF.SameCoordinates,Original*
G04 #@! TF.FileFunction,Profile,NP*
%FSLAX46Y46*%
G04 Gerber Fmt 4.6, Leading zero omitted, Abs format (unit mm)*
G04 Created by KiCad (PCBNEW (6.0.4)) date 2023-01-11 07:52:03*
%MOMM*%
%LPD*%
G01*
G04 APERTURE LIST*
G04 #@! TA.AperFunction,Profile*
%ADD10C,0.200000*%
G04 #@! TD*
G04 #@! TA.AperFunction,Profile*
%ADD11C,0.100000*%
G04 #@! TD*
G04 APERTURE END LIST*
D10*
X260900000Y-168000000D02*
X278700000Y-168000000D01*
D11*
X260500000Y-75500000D02*
X258000000Y-78000000D01*
X260500000Y-75500000D02*
X260500000Y-69400000D01*
X260000000Y-88500000D02*
X260000000Y-101900000D01*
X260000000Y-88500000D02*
G75*
G03*
X258000000Y-88500000I-1000000J0D01*
G01*
X262500000Y-69400000D02*
G75*
G03*
X260500000Y-69400000I-1000000J0D01*
G01*
X258000000Y-101900000D02*
G75*
G03*
X260000000Y-101900000I1000000J0D01*
G01*
X258000000Y-105900000D02*
X258000000Y-120300000D01*
X260000000Y-105900000D02*
X260000000Y-119700000D01*
X260000000Y-105900000D02*
G75*
G03*
X258000000Y-105900000I-1000000J0D01*
G01*
X262500000Y-122200000D02*
X262500000Y-124000000D01*
X262500000Y-122200000D02*
X260000000Y-119700000D01*
X260500000Y-122800000D02*
X258000000Y-120300000D01*
X260500000Y-122800000D02*
X260500000Y-124000000D01*
X260500000Y-124000000D02*
G75*
G03*
X262500000Y-124000000I1000000J0D01*
G01*
X262500000Y-132700000D02*
X262500000Y-127600000D01*
X262500000Y-132700000D02*
X260000000Y-135200000D01*
X260500000Y-132100000D02*
X258000000Y-134600000D01*
X260500000Y-132100000D02*
X260500000Y-127600000D01*
X260000000Y-140500000D02*
X260000000Y-135200000D01*
X262500000Y-127600000D02*
G75*
G03*
X260500000Y-127600000I-1000000J0D01*
G01*
X258000000Y-140500000D02*
G75*
G03*
X260000000Y-140500000I1000000J0D01*
G01*
X258000000Y-140500000D02*
X258000000Y-134600000D01*
X260000000Y-144200000D02*
G75*
G03*
X258000000Y-144200000I-1000000J0D01*
G01*
X260500000Y-163900000D02*
G75*
G03*
X262500000Y-163900000I1000000J0D01*
G01*
X258000000Y-144200000D02*
X258000000Y-158800000D01*
X262500000Y-160700000D02*
X262500000Y-163900000D01*
X260000000Y-144200000D02*
X260000000Y-158200000D01*
X262500000Y-160700000D02*
X260000000Y-158200000D01*
X260500000Y-161300000D02*
X258000000Y-158800000D01*
X260500000Y-161300000D02*
X260500000Y-163900000D01*
X50000000Y-165000000D02*
G75*
G03*
X50000000Y-165000000I-1500000J0D01*
G01*
X277000000Y-165000000D02*
G75*
G03*
X277000000Y-165000000I-1500000J0D01*
G01*
X277000000Y-69000000D02*
G75*
G03*
X277000000Y-69000000I-1500000J0D01*
G01*
X259000000Y-69000000D02*
G75*
G03*
X259000000Y-69000000I-1500000J0D01*
G01*
X259000000Y-165000000D02*
G75*
G03*
X259000000Y-165000000I-1500000J0D01*
G01*
X161500000Y-165000000D02*
G75*
G03*
X161500000Y-165000000I-1500000J0D01*
G01*
X161500000Y-128500000D02*
G75*
G03*
X161500000Y-128500000I-1500000J0D01*
G01*
X161500000Y-69000000D02*
G75*
G03*
X161500000Y-69000000I-1500000J0D01*
G01*
X259000000Y-128500000D02*
G75*
G03*
X259000000Y-128500000I-1500000J0D01*
G01*
X50000000Y-128500000D02*
G75*
G03*
X50000000Y-128500000I-1500000J0D01*
G01*
X277000000Y-128500000D02*
G75*
G03*
X277000000Y-128500000I-1500000J0D01*
G01*
X258000000Y-83400000D02*
X258000000Y-78000000D01*
D10*
X45400000Y-66000000D02*
X278700000Y-66000000D01*
X260900000Y-168000000D02*
X45400000Y-168000000D01*
D11*
X262500000Y-76100000D02*
X260000000Y-78600000D01*
X50000000Y-69000000D02*
G75*
G03*
X50000000Y-69000000I-1500000J0D01*
G01*
X258000000Y-88500000D02*
X258000000Y-101900000D01*
X262500000Y-76100000D02*
X262500000Y-69400000D01*
D10*
X45400000Y-168000000D02*
X45400000Y-66000000D01*
X278700000Y-66000000D02*
X278700000Y-168000000D01*
D11*
X258000000Y-83400000D02*
G75*
G03*
X260000000Y-83400000I1000000J0D01*
G01*
X260000000Y-83400000D02*
X260000000Y-78600000D01*
M02*
