G04 #@! TF.GenerationSoftware,KiCad,Pcbnew,(6.0.4)*
G04 #@! TF.CreationDate,2023-01-11T07:52:03+01:00*
G04 #@! TF.ProjectId,keyboard,6b657962-6f61-4726-942e-6b696361645f,rev?*
G04 #@! TF.SameCoordinates,Original*
G04 #@! TF.FileFunction,Paste,Bot*
G04 #@! TF.FilePolarity,Positive*
%FSLAX46Y46*%
G04 Gerber Fmt 4.6, Leading zero omitted, Abs format (unit mm)*
G04 Created by KiCad (PCBNEW (6.0.4)) date 2023-01-11 07:52:03*
%MOMM*%
%LPD*%
G01*
G04 APERTURE LIST*
G04 Aperture macros list*
%AMRoundRect*
0 Rectangle with rounded corners*
0 $1 Rounding radius*
0 $2 $3 $4 $5 $6 $7 $8 $9 X,Y pos of 4 corners*
0 Add a 4 corners polygon primitive as box body*
4,1,4,$2,$3,$4,$5,$6,$7,$8,$9,$2,$3,0*
0 Add four circle primitives for the rounded corners*
1,1,$1+$1,$2,$3*
1,1,$1+$1,$4,$5*
1,1,$1+$1,$6,$7*
1,1,$1+$1,$8,$9*
0 Add four rect primitives between the rounded corners*
20,1,$1+$1,$2,$3,$4,$5,0*
20,1,$1+$1,$4,$5,$6,$7,0*
20,1,$1+$1,$6,$7,$8,$9,0*
20,1,$1+$1,$8,$9,$2,$3,0*%
%AMRotRect*
0 Rectangle, with rotation*
0 The origin of the aperture is its center*
0 $1 length*
0 $2 width*
0 $3 Rotation angle, in degrees counterclockwise*
0 Add horizontal line*
21,1,$1,$2,0,0,$3*%
G04 Aperture macros list end*
%ADD10RoundRect,0.250000X0.325000X0.450000X-0.325000X0.450000X-0.325000X-0.450000X0.325000X-0.450000X0*%
%ADD11RoundRect,0.250000X0.450000X-0.325000X0.450000X0.325000X-0.450000X0.325000X-0.450000X-0.325000X0*%
%ADD12RoundRect,0.250000X-0.548008X-0.088388X-0.088388X-0.548008X0.548008X0.088388X0.088388X0.548008X0*%
%ADD13RoundRect,0.250000X0.088388X-0.548008X0.548008X-0.088388X-0.088388X0.548008X-0.548008X0.088388X0*%
%ADD14O,1.250000X0.950000*%
%ADD15O,0.890000X1.550000*%
%ADD16R,0.400000X1.350000*%
%ADD17R,1.200000X1.550000*%
%ADD18R,1.500000X1.550000*%
%ADD19RoundRect,0.250000X-0.325000X-0.450000X0.325000X-0.450000X0.325000X0.450000X-0.325000X0.450000X0*%
%ADD20RotRect,1.524000X0.406400X315.000000*%
%ADD21RotRect,0.406400X1.524000X315.000000*%
%ADD22R,1.200000X0.900000*%
G04 APERTURE END LIST*
D10*
X57625000Y-89300000D03*
X55575000Y-89300000D03*
X66725000Y-98800000D03*
X64675000Y-98800000D03*
D11*
X76400000Y-90725000D03*
X76400000Y-88675000D03*
X68900000Y-80025000D03*
X68900000Y-77975000D03*
D12*
X60475216Y-82075216D03*
X61924784Y-83524784D03*
D13*
X57775216Y-85024784D03*
X59224784Y-83575216D03*
D14*
X64200000Y-70100000D03*
D15*
X63200000Y-67400000D03*
D14*
X69200000Y-70100000D03*
D15*
X70200000Y-67400000D03*
D16*
X65400000Y-70100000D03*
X66050000Y-70100000D03*
X66700000Y-70100000D03*
X67350000Y-70100000D03*
X68000000Y-70100000D03*
D17*
X63800000Y-67400000D03*
X69600000Y-67400000D03*
D18*
X65700000Y-67400000D03*
X67700000Y-67400000D03*
D19*
X81850000Y-72600000D03*
X83900000Y-72600000D03*
X61775000Y-74200000D03*
X63825000Y-74200000D03*
X61775000Y-72300000D03*
X63825000Y-72300000D03*
D11*
X68500000Y-103025000D03*
X68500000Y-100975000D03*
D20*
X60130104Y-88087665D03*
X60695860Y-87521909D03*
X61261616Y-86956153D03*
X61827372Y-86390397D03*
X62393129Y-85824641D03*
X62958885Y-85258885D03*
X63524641Y-84693129D03*
X64090397Y-84127372D03*
X64656153Y-83561616D03*
X65221909Y-82995860D03*
X65787665Y-82430104D03*
D21*
X68212335Y-82430104D03*
X68778091Y-82995860D03*
X69343847Y-83561616D03*
X69909603Y-84127372D03*
X70475359Y-84693129D03*
X71041115Y-85258885D03*
X71606871Y-85824641D03*
X72172628Y-86390397D03*
X72738384Y-86956153D03*
X73304140Y-87521909D03*
X73869896Y-88087665D03*
D20*
X73869896Y-90512335D03*
X73304140Y-91078091D03*
X72738384Y-91643847D03*
X72172628Y-92209603D03*
X71606871Y-92775359D03*
X71041115Y-93341115D03*
X70475359Y-93906871D03*
X69909603Y-94472628D03*
X69343847Y-95038384D03*
X68778091Y-95604140D03*
X68212335Y-96169896D03*
D21*
X65787665Y-96169896D03*
X65221909Y-95604140D03*
X64656153Y-95038384D03*
X64090397Y-94472628D03*
X63524641Y-93906871D03*
X62958885Y-93341115D03*
X62393129Y-92775359D03*
X61827372Y-92209603D03*
X61261616Y-91643847D03*
X60695860Y-91078091D03*
X60130104Y-90512335D03*
D10*
X83525000Y-68475001D03*
X81475000Y-68475001D03*
X105775000Y-68500000D03*
X103725000Y-68500000D03*
D22*
X218150000Y-102125000D03*
X218150000Y-98825000D03*
X161000000Y-121175000D03*
X161000000Y-117875000D03*
X180050000Y-83075000D03*
X180050000Y-79775000D03*
X103850000Y-140225000D03*
X103850000Y-136925000D03*
X237200000Y-102125000D03*
X237200000Y-98825000D03*
X275300000Y-121175000D03*
X275300000Y-117875000D03*
X141950000Y-140225000D03*
X141950000Y-136925000D03*
X237200000Y-140225000D03*
X237200000Y-136925000D03*
X218150000Y-140225000D03*
X218150000Y-136925000D03*
X256250000Y-102125000D03*
X256250000Y-98825000D03*
X84800000Y-83075000D03*
X84800000Y-79775000D03*
X65750000Y-159275000D03*
X65750000Y-155975000D03*
X218150000Y-121175000D03*
X218150000Y-117875000D03*
X180050000Y-102125000D03*
X180050000Y-98825000D03*
X161000000Y-140225000D03*
X161000000Y-136925000D03*
X103850000Y-102125000D03*
X103850000Y-98825000D03*
X237200000Y-83075000D03*
X237200000Y-79775000D03*
X103850000Y-159275000D03*
X103850000Y-155975000D03*
X199100000Y-83075000D03*
X199100000Y-79775000D03*
X122900000Y-121175000D03*
X122900000Y-117875000D03*
X122900000Y-159275000D03*
X122900000Y-155975000D03*
X218150000Y-159275000D03*
X218150000Y-155975000D03*
X218150000Y-83075000D03*
X218150000Y-79775000D03*
X275300000Y-140225000D03*
X275300000Y-136925000D03*
X275300000Y-83075000D03*
X275300000Y-79775000D03*
X180050000Y-159275000D03*
X180050000Y-155975000D03*
X256250000Y-83075000D03*
X256250000Y-79775000D03*
X180050000Y-140225000D03*
X180050000Y-136925000D03*
X237200000Y-159275000D03*
X237200000Y-155975000D03*
X122900000Y-83075000D03*
X122900000Y-79775000D03*
X141950000Y-121175000D03*
X141950000Y-117875000D03*
X275300000Y-102125000D03*
X275300000Y-98825000D03*
X256250000Y-121175000D03*
X256250000Y-117875000D03*
X256250000Y-159275000D03*
X256250000Y-155975000D03*
X161000000Y-83075000D03*
X161000000Y-79775000D03*
X65500000Y-106350000D03*
X65500000Y-103050000D03*
X256250000Y-140225000D03*
X256250000Y-136925000D03*
X237200000Y-121175000D03*
X237200000Y-117875000D03*
X65750000Y-140225000D03*
X65750000Y-136925000D03*
X275300000Y-159275000D03*
X275300000Y-155975000D03*
X103850000Y-121175000D03*
X103850000Y-117875000D03*
X84800000Y-102125000D03*
X84800000Y-98825000D03*
X199100000Y-121175000D03*
X199100000Y-117875000D03*
X161000000Y-159275000D03*
X161000000Y-155975000D03*
X84800000Y-140225000D03*
X84800000Y-136925000D03*
X84800000Y-121175000D03*
X84800000Y-117875000D03*
X199100000Y-102125000D03*
X199100000Y-98825000D03*
X161000000Y-102125000D03*
X161000000Y-98825000D03*
X122900000Y-140225000D03*
X122900000Y-136925000D03*
X103850000Y-83075000D03*
X103850000Y-79775000D03*
X65750000Y-121175000D03*
X65750000Y-117875000D03*
X199100000Y-159275000D03*
X199100000Y-155975000D03*
X122900000Y-102125000D03*
X122900000Y-98825000D03*
X199100000Y-140225000D03*
X199100000Y-136925000D03*
X180050000Y-121175000D03*
X180050000Y-117875000D03*
X65500000Y-79250000D03*
X65500000Y-75950000D03*
X141950000Y-102125000D03*
X141950000Y-98825000D03*
X84800000Y-159275000D03*
X84800000Y-155975000D03*
X141950000Y-83075000D03*
X141950000Y-79775000D03*
M02*
